<?xml version="1.0" encoding="utf-8"?>
<!-- Generator: Adobe Illustrator 24.2.3, SVG Export Plug-In . SVG Version: 6.00 Build 0)  -->
<svg version="1.1" id="Layer_1" xmlns="http://www.w3.org/2000/svg" xmlns:xlink="http://www.w3.org/1999/xlink" x="0px" y="0px"
	 viewBox="0 0 322.2 121.5" style="enable-background:new 0 0 322.2 121.5;" xml:space="preserve">
<style type="text/css">
	.st0{fill:#FFFFFF;}
	.st1{fill:#E52520;}
</style>
<g>
	<path class="st0" d="M8.1,75.2c0.4-0.7,0.5-1.5,0.6-2.3c0.2-1,0.3-2.1,0.3-3.1c0-0.5-0.3-1.1-0.3-1.6c0.1-1.2,0.3-2.4,0.5-3.6
		c0.3-2.2,0.3-4.4,0.8-6.5c0.8-3.3,1.7-6.6,2.9-9.8c1.4-3.9,3.5-7.4,6.1-10.6c0.4-0.5,0.6-1.3,0.8-1.9c0.7-1.8,1.9-3,3.5-4
		c1.6-0.9,3-2.1,4.4-3.3c3.9-3.2,7.8-6.4,12.4-8.6c1.6-0.8,3.4-1.4,5.2-1.8c2.8-0.7,5.6-1.2,8.4-1.6c3.5-0.6,7.1-1.2,10.6-1.5
		c8.4-0.9,16.8-1.3,25.2-1.1c3.5,0.1,7,0.3,10.5,0.4c0.6,0,1.1-0.1,1.6-0.6c0.4-0.4,1.2-0.7,1.8-0.7c5.7,0.1,11.4,0.3,17.1,0.4
		c1,0,1.3,0.3,1.3,1.2c-0.2,4.9-0.1,9.7-0.5,14.6c-0.4,4.3-1.3,8.5-2.1,12.7c-0.3,1.6-0.9,3.1-1.4,4.6c-0.1,0.2-0.3,0.5-0.5,0.6
		c-1.5,0.6-3,1.3-4.7,0.6c-0.3-0.1-0.7-0.3-1-0.3c-3.4-0.3-6.8-0.5-10.2-0.8c-0.3,0-0.6,0-0.8,0.2c-1.5,1.7-2.2,1.5-4.3,1.3
		c0.5,1.4,0.7,2.8,1.4,4c0.8,1.4,1.8,2.6,2.9,3.7c0.4,0.4,1.2,0.4,1.8,0.7c0.5,0.2,1,0.5,1.5,0.9c2,1.2,2.2,5,0.3,6.5
		c-1.9,1.4-3.8,2.7-5.8,3.9c-1.4,0.9-1.2,2.2-1.3,3.5c0,1.2,0.6,2.1,1.8,2.5c1.2,0.4,2.3,0.9,3.5,1.4c-1.1,2.3-2.1,4.5-3.1,6.7
		c-1.3,2.7-2.5,5.3-3.8,7.9c-0.1,0.3-0.7,0.5-0.9,0.5c-2.4-0.4-4.7-0.9-7.1-1.5c-0.6-0.2-1.1-0.1-1.4,0.4c0,0-0.1,0.1-0.1,0.1
		c-1.4,1.1-1.9,2.5-1.7,4.3c0.1,2,0.1,4.1-0.7,6.1c-0.7,1.7-1.6,2.5-3.4,2.5c-1.3,0-2.7-0.1-3.9-0.3c-3.7-0.8-7-0.2-10.3,1.8
		c-2.6,1.5-5.6,2.2-8.6,2.4c-4.6,0.4-9.3,0.7-13.9,1.1c-0.4,0-0.8,0.3-1.1,0.6c-1.2,1.2-2.5,2.2-4.1,2.8c-2.2,0.8-4.4,0.1-5.3-1.9
		c-0.5-1-0.7-2.1-0.7-3.2c0-1.1-0.5-1.4-1.3-1.8c-4.6-1.9-8.6-4.5-12.2-8c-3.2-3.1-5.7-6.7-7.2-10.9c-0.3-0.9-0.8-1.4-1.8-1.9
		 M96.6,43.8c0.2-0.8,0.4-1.5,0.6-2.3c0.6-2.8,1.2-5.7,1.8-8.5c0.2-1-0.3-1.3-1-1.5c-2.7-0.7-5.3-1.6-8-2.1
		c-4.4-0.8-8.8-1.6-13.2-1.8c-8.6-0.5-17.1,0.3-25.4,3.1c-6.1,2.1-11.5,5.2-16.1,9.6c-0.5,0.4-1,0.8-1.6,1.2
		c-0.1,0.3-0.2,0.7-0.5,1.1c-2.7,3.4-5,7-6.3,11.1c-0.1,0.4-0.5,0.7-0.7,1.1C26.1,55,26,55.3,26,55.5c-0.1,0.8-0.2,1.7-0.3,2.6
		c-0.1,0.7-0.3,1.3-0.5,2c0.5-0.4,0.7-0.9,1-1.4c0.6-1.1,1.4-2.1,2-3.2c0.8-1.3,1.4-2.8,2.3-4c0.6-1,1.5-1.8,2.2-2.6
		c0.8-1,1.6-2.1,2.5-3.1c0.3-0.3,0.9-0.4,1.3-0.7c0.6-0.4,1.1-0.9,1.6-1.4c0.3-0.3,0.4-0.9,0.7-1.1c4.4-3.4,9.3-5.7,14.8-6.6
		c5.2-0.9,10.3-0.3,15.2,1.5c4.6,1.7,8.6,4.5,12,8.1c0.8,0.8,1.6,1.7,2.4,2.6c-2.8-4.7-5.6-9.5-9.9-13.1
		C81.1,37.4,89.3,39.2,96.6,43.8z M15.5,62.7c0.2-0.5,0.6-0.9,0.5-1.2c-0.5-2.1,1.5-3.7,1.1-5.8c1.9-6.6,5.1-12.4,9.7-17.4
		c7.8-8.4,17.7-12.9,28.5-15.4c4.4-1,8.9-1.5,13.4-2.1c9.3-1.1,18.5-0.6,27.8,0.3c1.3,0.1,2.7,0.3,4.1,0.5c0.2-1.8,0.2-3.5,0.4-5.2
		c0.1-0.8-0.2-1-0.9-1.1c-1.9-0.1-3.7-0.2-5.6-0.3c-6.6-0.2-13.1-0.1-19.6,0.6c-4,0.4-7.9,0.8-11.8,1.5c-4.4,0.8-8.7,1.9-13,3.1
		c-6.7,1.9-13,4.8-18.7,8.9C27.4,32,24,35.5,21.3,39.8c-3.6,5.6-5.3,11.8-5.7,18.4c0,0.6-0.4,1.2-0.6,1.8c-0.1,0.2-0.1,0.4-0.1,0.5
		C15,61.1,15.2,61.7,15.5,62.7z M27,69.3c0,0.2-0.1,0.3-0.1,0.4c0,0.2,0,0.4,0,0.7c0.3,5,1.2,9.8,3.9,14.2c2.3,3.6,5.4,6.1,9.4,7.4
		c4.8,1.7,9.8,1.8,14.8,1c4.3-0.7,8.5-1.8,12.5-3.4c1.5-0.6,3.1-1.2,4.7-1.3c2.4-0.2,4.8,0,7.1,0.1c1,0,1.9,0,3.2,0
		C82.1,88.1,82,88,81.9,88c-3.9-1.5-7.9-3-11.8-4.5c-0.3-0.1-0.9,0-1.2,0.2c-3.2,1.7-6.4,3-10,3.8c-4.6,1-9.1,1.1-13.7,0.2
		c-3.8-0.8-7.2-2.3-10.2-4.6C30.5,79.6,27.9,75,27,69.3z M82.8,70c-0.4-0.3-0.8-0.7-1.2-1c-0.4-0.4-0.8-0.6-1.3-0.1
		c-0.7,0.6-1.5,1.1-2.4,1.8c2,1.3,0.9,2.5,0,3.7c-0.1,0.2-0.2,0.4-0.4,0.5c-1.8,2.3-3.6,4.5-5.5,6.8c0.3,0.1,0.6,0.3,0.9,0.4
		c2.2,0.8,4.4,1.5,6.6,2.3c4.4,1.5,8.5,3.7,13.3,4.2c1.1,0.1,1.6-0.1,2.1-1c0.8-1.7,1.6-3.3,2.4-5c1.1-2.3,2.2-4.6,3.4-7
		c-5.8-1.8-11.4-3.6-17.1-5.4L82.8,70z M101.5,45.2c3,0.3,5.9,0.5,8.8,0.8c0.8,0.1,1.7,0.2,2.5,0.3c0.9,0.1,1.8,0.3,2.7,0.3
		c0.7,0,1.3-0.3,1.5-1.2c0.7-2.7,1.5-5.4,2.2-8.1c0.3-1.3,0.4-2.7,0.7-4.1c-5.5-0.3-10.8-0.5-16-0.8C103,36.7,102.2,40.9,101.5,45.2
		z M81.8,61.6c2.5-0.8,4.9-1.5,7.3-2.4c1.8-0.7,3.5-1.6,4.8-3.1c1.3-1.6,1.2-4.3-0.2-5.7c-0.8-0.8-1.8-1.5-2.9-1.1
		c-3.2,1-6.3,2.1-9.4,3.1c-0.6,0.2-0.8,0.5-0.7,1.1c0.2,1.6,0.4,3.2,0.7,4.8C81.4,59.3,81.6,60.3,81.8,61.6z M120.9,14.2
		c-1-0.1-1.9-0.1-2.8-0.1c-4-0.1-8-0.2-11.9-0.3c-0.4,0-1,0.4-1,0.6c-0.1,1.2-0.1,2.5-0.1,3.8c5.3,0.3,10.5,0.5,15.8,0.7
		C120.9,17.3,120.9,15.8,120.9,14.2z M71.7,67c0.6-3.9,1.2-7.6-0.4-11.5c-0.3,0.3-0.3,0.5-0.4,0.6c-1.4,2-2.7,3.9-4.1,5.8
		c-1,1.3-2.3,2.2-4.1,1.8c-0.8-0.2-1.7,0-2.5-0.1c-0.8-0.1-1.3,0.1-1.5,1.1C62.8,65.5,67.2,66.2,71.7,67z M52.8,67.2
		c-1.5,4.4-2.9,8.8-4.4,13.3c4.2,0.6,8,0.3,11.7-1.3c-1.9-1.3-3.7-2.5-5.4-3.8c-1.5-1.1-2.4-2.6-1.5-4.5c0.1-0.3,0.2-0.6,0.2-0.8
		c0.1-0.8,0.2-1.5,0.3-2.3C53.5,67.6,53.3,67.4,52.8,67.2z M38.4,72.8c2.4,3,4.7,5.8,8.5,7.1c0-0.3,0-0.5-0.1-0.7
		c-0.9-2.7-1-5.4-0.6-8.1c0.1-0.6,0.4-1.2,0.9-1.6c1-0.9,2.1-1.7,3.2-2.5c0.7-0.5,0.8-0.9,0.4-1.7C46.6,67.7,42.6,70.2,38.4,72.8z
		 M38.9,58c0.6-0.2,1-0.4,1.5-0.6c2.4-0.8,4.8-1.3,7.3-1.3c0.9,0,1.6,0.3,2.1,1.1c0.7,1.1,1.6,2.1,2.4,3.1c0.4-0.2,0.7-0.4,1.1-0.5
		c-2.1-3.7-4.2-7.3-6.3-11C44.2,50.5,39,55.8,38.9,58z M37.9,70.9c0.2-0.2,0.3-0.3,0.4-0.4c1.4-2.9,3.5-5.3,6-7.3
		c0.3-0.3,0.8-0.4,1.3-0.4c1.3,0,2.7,0.1,4,0.3c0.8,0.1,1.2-0.2,1.3-1c-1.1-0.2-2.2-0.5-3.2-0.7c-3.1-0.6-6.1-1.3-9.2-1.8
		c-0.2,0-0.7,0.3-0.8,0.5c-0.3,0.9-0.5,1.8-0.5,2.8C37,65.6,36.7,68.3,37.9,70.9z M58.6,61.8c4.1-2.5,8.2-4.9,12.4-7.4
		c-2.3-3.1-4.7-5.8-8.2-7.1c0.2,2.5,0.4,5,0.5,7.4c0.1,1.5-0.3,2.8-1.8,3.6c-0.9,0.5-1.7,1.3-2.5,1.9C58.4,60.5,58.2,61,58.6,61.8z
		 M49.5,47.7c0,0.1,0,0.2,0,0.3c0.3,0.2,0.7,0.3,1,0.5c2.2,1.2,4.3,2.6,5.8,4.7c0.3,0.4,0.3,1,0.3,1.5c-0.3,1.5-0.6,3-1,4.5
		c0.3,0.2,0.7,0.3,1.1,0.6c1.5-4.4,3-8.8,4.5-13.2C57,46,53.2,46.1,49.5,47.7z M61.8,78.3c2.8-1.2,8.1-6.8,8.3-8.8
		c-0.3,0.1-0.6,0.1-0.8,0.2c-2.5,0.9-5.1,1.3-7.8,1.3c-1,0-1.7-0.3-2.2-1.2c-0.4-0.8-1.1-1.4-1.5-2.1c-0.5-0.8-1-0.9-1.9-0.5
		C57.9,70.9,59.9,74.6,61.8,78.3z M120.7,23.5c0.1-0.6,0.1-1,0.2-1.4c0.2-1.5,0.2-1.5-1.2-1.5c-4.3-0.2-8.7-0.5-13-0.7
		c-0.5,0-1.1,0-1.7,0c0,0.4-0.1,0.7-0.1,1c-0.1,1.4-0.1,1.4,1.3,1.5c3.9,0.3,7.8,0.5,11.7,0.8C118.8,23.3,119.7,23.4,120.7,23.5z
		 M75,99.8c1.4,0.2,2.5,0.5,3.6,0.6c1.3,0.1,2.5,0,3.5-0.9c1.1-1.1,1.4-5,0.5-6.4C80.2,95.3,77.7,97.4,75,99.8z M33.8,104.4
		c-0.1,2.1,1.2,4.2,2.7,4.6c1.3,0.4,4.3-1,5.1-2.4C39,105.9,36.5,105.2,33.8,104.4z M61.9,83c0-0.8-0.7-1.5-1.4-1.5
		c-0.9,0-2.1,1.1-2.1,2c0,0.8,0.7,1.5,1.6,1.5C61,85,61.9,84,61.9,83z M33.5,73.3c1,0,1.9-0.9,1.9-1.9c0-0.9-0.7-1.5-1.7-1.5
		c-1,0-2,0.9-1.9,1.9C31.8,72.6,32.6,73.3,33.5,73.3z M43.9,81.4c-1.1,0-2,0.8-2,1.8c0,0.9,0.7,1.5,1.6,1.5c1,0,2-1.1,2-1.9
		C45.5,82.1,44.8,81.4,43.9,81.4z M76,54.4c-1,0-1.9,0.9-1.9,1.8c0,0.8,0.8,1.5,1.7,1.5c1,0,1.9-0.9,1.9-1.8
		C77.6,55,77,54.4,76,54.4z M49.4,45.3c1.1,0,2.1-0.9,2.1-1.9c0-0.8-0.8-1.5-1.6-1.5c-1.1,0-2,1-2,2C48,44.8,48.4,45.3,49.4,45.3z
		 M67.5,43.2c-1.1,0-2.1,0.9-2.1,1.9c0,0.8,0.8,1.5,1.6,1.5c1,0,2-1,2-1.9C69,43.8,68.4,43.2,67.5,43.2z M36.6,52.4
		c-1,0-1.9,0.9-1.9,1.8c0,0.9,0.6,1.6,1.6,1.6c1,0,2-1,1.9-2C38.2,53,37.5,52.4,36.6,52.4z M72.6,74.9c0.9,0,1.9-1,1.9-1.9
		c0-0.8-0.8-1.5-1.7-1.5c-1,0-1.9,0.9-1.9,1.9C71,74.3,71.7,74.9,72.6,74.9z M10.6,81.4c-0.4-1.7-0.7-3.3-1.1-5
		C7.7,78.1,8.2,80.3,10.6,81.4z"/>
	<path class="st1" d="M220.4,16.4c5.6,1.1,10.9,3,15.9,5.9c1.8,1,3.5,2.2,5.1,3.5c-1.7-0.6-3.4-1.2-5.1-1.7c-3.8-1.2-7.7-2-11.6-2.5
		c-4.3-0.5-8.5-0.7-12.8-0.3c-6,0.5-11.9,1.7-17.4,4.4c-1.8,0.9-3.5,1.9-4.6,3.5c-1.1,1.6-0.7,3,1.1,3.6c2.6,1,5.4,1,8.1,0.3
		c1.9-0.5,3.7-1.2,5.6-1.8c-0.9,1.5-2.1,2.6-3.4,3.5c-3.6,2.6-7.8,3.9-12.1,4.7c-5.6,1-11.2,0.9-16.8,0.6c-2.5-0.1-5-0.5-7.5-0.7
		c-1.6-0.1-3.2-0.2-4.7,0.7c-2.2,1.3-2.7,3.6-1.3,5.7c1.4,1.9,3.4,2.8,5.5,3.6c1.3,0.5,2.7,0.8,4,1.5c-2.3-0.2-4.5-0.3-6.8-0.6
		c-6-0.7-11.6-2.8-17.1-5.2c-2.7-1.2-5.5-2.4-8.4-3.2c-4.8-1.3-9.3-0.3-13.4,2.5c-0.6,0.4-1.2,0.8-1.8,1.2c0.8-3.1,1.7-6.1,2.2-9.2
		c0.7-3.9,1.2-7.9,1.5-11.8c0.3-3,0.2-6,0.4-9c0-0.4,0.5-0.9,0.9-1c5.8-1.9,11.7-3.1,17.7-3.7c5.6-0.6,11.2-0.4,16.7,0.4
		c3.2,0.5,6.3,1.4,9.4,2.2c0,0.1,0,0.2,0,0.4c-0.4,0-0.7,0-1.1,0c-4.3-0.1-8.5,0-12.7,0.9c-2,0.4-3.9,1-5.6,2.3
		c-0.1,0.1-0.2,0.1-0.3,0.2c-0.4,0.8-1.3,1.5-1.3,2.3c0.1,1.1,1.2,1.4,2.2,1.6c4.8,1.1,9.7,0.6,14.5,0.1c2.9-0.3,5.9-0.6,8.8-1.1
		c4.2-0.7,8.3-1.5,12.5-2.2c4.3-0.7,8.6-1.4,12.9-1.7c4.9-0.4,9.9-0.3,14.8-0.4C217.2,15.7,220.4,16.4,220.4,16.4z M153.6,41.3
		c0-0.1,0.1-0.2,0.1-0.3c-0.8-0.3-1.6-0.8-2.5-0.9c-2.3-0.4-4.8-0.1-6.9-1.7c1.3,4.3,6.7,7.7,12,8.5c-0.4-0.3-0.7-0.6-1-0.8
		c-1-0.9-2-1.8-2.9-2.7c-0.3-0.3-0.4-1-0.6-1.5c0.5-0.1,1-0.3,1.5-0.4C153.4,41.3,153.5,41.3,153.6,41.3z M136.3,16.5
		c1.8-0.6,3.5-0.1,5.3,0.3c1.6,0.4,3.2,0.8,5-0.2c-0.4-0.1-0.7-0.2-1-0.3c-0.3-0.1-0.6-0.3-0.9-0.5c0.2-0.3,0.3-0.8,0.6-0.9
		c0.8-0.5,1.7-1,2.6-1.4c1-0.4,2-0.7,3.1-1.1C145.4,11.9,140.4,12.6,136.3,16.5z M196.3,35.2c-1.4-0.1-2.7-0.1-3.9-0.2
		c-1.4-0.1-2.8-0.3-4.3-0.3c-1.2,0-2.1,0.7-2.7,1.6c1.5,0.1,2.9,0.2,4.3,0.3C192,36.8,194.4,37.1,196.3,35.2z"/>
	<path class="st0" d="M245.2,66.9c0.7-0.6,1.3-1.3,1.9-1.6c0.8-0.4,1.8-0.9,2.7-0.9c4.6-0.1,9.2-0.1,13.8,0c1.7,0,3.4,0.3,4.6,1.7
		c1.5,1.6,1.4,3.6,0.8,5.5c-0.8,2.6-1.8,5.2-2.9,7.8c-1.2,2.9-2.3,5.8-3.8,8.6c-2.6,4.8-6.7,7.3-12.3,7.3c-4.2,0-8.5,0-12.7,0
		c-1.9,0-2.5-0.5-2.7-2.5c0-0.1,0-0.3-0.1-0.6c-0.7,0.9-1.2,1.7-1.8,2.5c-0.2,0.3-0.6,0.6-0.9,0.6c-4.8,0-9.5,0-14.3,0
		c-0.1,0-0.2-0.1-0.3-0.1c0.8-1.3,1.8-2.5,2.4-3.8c1.4-2.9,2.6-5.9,3.8-8.9c1.5-3.5,2.9-7.1,4.3-10.6c2-4.9,4-9.9,5.9-14.9
		c0.4-1,0.3-2.3,0.5-3.5c5.4,0,10.9,0,16.6,0C249,57.8,247.1,62.3,245.2,66.9z M241.3,89L241.3,89c1,0,2.1,0,3.1,0
		c1.4,0,2.4-0.6,2.9-1.9c0.3-0.7,0.6-1.4,0.9-2.1c1.7-4.2,3.4-8.3,5.1-12.5c0.6-1.4,0.1-2.1-1.4-2.1c-1.9,0-3.9,0-5.8,0
		c-1.4,0-2.5,0.6-3,1.9c-0.7,1.7-1.4,3.4-2.1,5.1c-1.3,3.2-2.7,6.4-3.9,9.7c-0.5,1.3-0.1,1.8,1.3,1.9C239.3,89.1,240.3,89,241.3,89z
		"/>
	<path class="st0" d="M288.3,95c-4.2,0-8.5,0-12.7,0c-2,0-4,0-6-0.3c-3.4-0.5-3.8-2.8-3.1-5.2c0.6-2.4,1.6-4.8,2.5-7.2
		c1.5-3.6,2.9-7.2,4.5-10.7c1.2-2.7,3-5.1,5.9-6.2c1.5-0.6,3.1-0.9,4.7-1c4.5-0.1,9-0.1,13.5,0c0.8,0,1.6,0.1,2.5,0
		c0.6-0.1,1.1,0.3,1.7,0.3c0.5,0.1,1.1,0.2,1.6,0c1.5-0.6,2.9-0.4,4.3,0c0.9,0.3,2,0.3,2.8,0c1.5-0.6,2.7,0,3.9,0.6
		c1.2,0.6,1.7,1.8,1.5,3c-0.2,1.6-0.5,3.3-1.1,4.8c-1.8,4.7-3.8,9.3-5.7,13.9c-1.1,2.7-2.8,5.1-5.4,6.7c-2,1.2-4.3,1.4-6.5,1.4
		C294.3,95.1,291.3,95.1,288.3,95C288.3,95,288.3,95,288.3,95z M287.2,89L287.2,89c1.1,0,2.3,0,3.4,0c1.3-0.1,2.3-0.6,2.8-1.9
		c0.5-1.2,1.1-2.4,1.5-3.6c1.5-4,3.5-7.8,4.8-11.9c0.3-0.8,0-1.2-0.8-1.2c-2.4,0-4.9-0.1-7.3,0c-1.2,0-2.4,0.5-3,1.6
		c-1,2-1.7,4.2-2.5,6.3c-1.2,3-2.4,5.9-3.5,8.9c-0.5,1.4-0.2,1.9,1.4,1.9C285.1,89,286.1,89,287.2,89z"/>
	<path class="st0" d="M148.2,64.4c5.4,0,11.1,0,16.8,0c-0.6,1.4-1.1,2.8-1.6,4.1c-2.5,6.1-5,12.2-7.5,18.3c-0.6,1.4-0.2,2.1,1.3,2.2
		c2.1,0.1,4.2,0,6.3,0c1.9,0,2.8-1.3,3.4-2.8c2.1-5.3,4.2-10.5,6.4-15.7c0.8-1.9,1.1-3.9,0.9-6.1c5.8,0,11.4,0,17.3,0
		c-0.6,1.4-1.1,2.7-1.6,4c-2.6,6.3-5.1,12.7-7.8,19c-1,2.4-2,4.8-1.5,7.6c-5.4,0-10.7,0-16.1,0c0.3-1,0.5-1.8,0.8-2.9
		c-0.9,0.8-1.5,1.5-2.3,1.9c-1,0.5-2.1,1-3.1,1c-4.2,0.1-8.5,0.1-12.7,0c-1.3,0-2.6-0.2-3.8-0.6c-2.6-0.9-3.4-3.5-2.8-6.1
		c0.8-3,1.9-5.9,3-8.8c1.3-3.5,2.9-6.9,4.1-10.4C148,67.6,147.9,66,148.2,64.4z"/>
	<path class="st0" d="M107.4,94.9c0.7-1.1,1.6-2.1,2.1-3.2c1.4-2.9,2.6-5.8,3.9-8.8c1.5-3.6,2.9-7.1,4.4-10.7c1.6-4,3.3-8,5-12.2
		c-4.7,0.3-9.3-0.8-13.9,1.8c0.8-1.5,1.4-2.7,2.1-3.8c0.8-1.4,1.6-2.7,2.3-4.1c0.3-0.7,0.8-0.8,1.5-0.8c5.7,0,11.4,0,17.1,0
		c6.8,0,13.6,0,20.4,0c0.4,0,0.9,0,1.4,0c-0.8,2.9-1.5,5.7-2.2,8.7c-2-1.8-4.3-1.8-6.6-1.8c-1.8,0-3.5,0-5.3,0
		c-0.4,0-0.9,0.4-1.1,0.7c-2.2,5.1-4.3,10.3-6.4,15.5c-1.9,4.7-3.8,9.4-5.7,14.2c-0.4,1.2-0.5,2.5-0.8,3.7c-0.1,0.3-0.5,0.8-0.7,0.8
		c-5.7,0-11.4,0-17.1,0C107.7,95,107.6,95,107.4,94.9z"/>
	<path class="st0" d="M199,92.7c0.5,0.7,1,1.4,1.5,2.2c-1-0.1-1.8-0.1-2.9-0.2c0.4-0.3,0.8-0.6,1.1-0.8c-0.8-0.6-1.2,0-1.6,0.5
		c-0.2,0.3-0.6,0.7-0.9,0.7c-4.1,0-8.1,0-12.2,0c-0.1,0-0.3-0.1-0.6-0.1c0.4-0.5,0.7-0.9,1.1-1.3c1.9-2.1,2.9-4.7,3.9-7.2
		c1.7-4.1,3.4-8.1,5-12.2c0.9-2.2,1.7-4.5,2.4-6.8c0.3-0.9,0.1-1.9,0.2-3c5,0,10.1,0,15.3,0c-0.4,1.5-0.9,2.9-1.3,4.6
		c1.1-1,2.1-1.9,3.1-2.8c1.4-1.2,3.1-1.8,4.9-1.8c3.1-0.1,6.2,0,9.6,0c-1.4,3.4-2.7,6.6-4.1,9.9c-0.9-0.4-1.6-0.9-2.4-1
		c-3.4-0.6-6.8-0.6-10.1,0.4c-1.8,0.6-2.7,2.2-3.4,3.9c-1.6,3.9-3.2,7.8-4.9,11.8c-0.3-0.1-0.6-0.3-1.2-0.6c0.3,0.6,0.4,0.9,0.6,1.3
		c-1.3,1.2-1.3,1.2-0.4,2.8c0.1,0.1,0.2,0.3,0.2,0.4c0,0.6,0,1.1,0,1.7c-0.4-0.3-0.8-0.6-1.1-0.9c-0.5-0.5-0.9-1.1-1.3-1.6
		C199.3,92.5,199.2,92.6,199,92.7z"/>
	<path class="st1" d="M170.1,44.1c2.2,1.3,4.6,1,6.9,0.8c2.8-0.3,5.6-0.7,8.5-0.9c3.3-0.2,6.3,1,8.7,3.3c0.1,0.1,0.2,0.2,0.3,0.5
		c-0.2,0-0.4,0.1-0.4,0.1c-3.2-1-6.4-0.6-9.6-0.1c-2.2,0.4-4.5,0.7-6.7,0.7c-3.2,0.1-5.8-1.3-7.6-4
		C170.1,44.4,170.2,44.3,170.1,44.1z"/>
	<path class="st0" d="M225.8,104.1c-1.2,1.3-2.4,2.6-3.7,3.8c-0.4,0.4-1.1,0.5-1.7,0.6c-0.2,0-0.5-0.8-0.6-1.2c-0.2-1-0.4-2-0.8-3
		c-0.4,1-0.9,2-1.3,3c-0.6,1.5-0.7,1.5-2.6,1.2c0.7-1.8,1.4-3.5,2.1-5.2c0.2-0.6,0.5-1.4,0.9-1.5c0.8-0.3,1.7-0.1,2.6-0.1
		c0.2,0,0.4,0.4,0.5,0.7c0.2,1.1,0.4,2.3,0.6,3.4c1.1-1.1,2.2-1.9,3.1-3c1.2-1.5,2.8-1.3,4.4-1.1c-0.9,2.2-1.6,4.4-2.6,6.4
		c-0.2,0.4-1.3,0.5-2,0.7c-0.1-0.1-0.1-0.2-0.2-0.3c0.6-1.4,1.1-2.7,1.6-4.1C226,104.2,225.9,104.2,225.8,104.1z"/>
	<path class="st0" d="M186.9,103.8c0.7,0.6,0.1,1.2-0.2,1.9c-0.9,2.3-1.8,2.9-4.2,3c-1.4,0-2.7,0.1-4.1,0c-1.6-0.1-2.1-0.9-1.5-2.4
		c0.4-0.9,0.8-1.8,1.2-2.7c0.6-1.3,1.6-2,2.9-2.1c1.7-0.1,3.4-0.1,5.1,0c0.5,0,1.2,0.3,1.4,0.7C187.7,102.6,187.1,103.2,186.9,103.8
		z M181.4,106.9c2.4,0,2.8-0.3,3.5-2.4c0.3-0.8,0-1.2-0.8-1.3c-0.9-0.1-1.8-0.2-2.6,0.1c-0.6,0.2-1.3,0.7-1.6,1.2
		C178.8,106.7,179,106.9,181.4,106.9z"/>
	<path class="st0" d="M260.9,103.6c-0.7,1.8-1.4,3.3-2,4.8c-0.6,0-1.3,0.1-2,0.1c0-0.1-0.1-0.3-0.1-0.4c0.8-2,1.5-3.9,2.4-5.9
		c0.1-0.3,0.6-0.6,1-0.6c2.6-0.2,2.6-0.1,3.5,2.4c0.3,0.8,0.7,1.7,1.1,2.7c0.6-1.4,1.1-2.6,1.5-3.8c0.5-1.4,0.7-1.5,2.7-1.2
		c-0.6,1.4-1.1,2.8-1.6,4.1c-0.1,0.3-0.3,0.5-0.4,0.8c-0.7,2-0.7,1.9-2.8,2c-1.1,0.1-1.5-0.4-1.8-1.3
		C262,106.2,261.5,105,260.9,103.6z"/>
	<path class="st0" d="M196,108.6c0.9-2.4,1.7-4.5,2.6-6.5c0.1-0.3,0.6-0.5,0.9-0.5c1.8-0.1,3.6-0.1,5.4,0c1.8,0.1,2.2,0.6,1.5,2.3
		c0,0.1,0,0.2-0.1,0.2c-0.8,1.1-1.4,2.3-1.5,3.7c-0.1,0.9-0.5,1-2.4,0.7c0-0.1-0.1-0.1-0.1-0.2c0.5-1.4,0.5-1.4-1-1.5
		c-0.4,0-0.9,0.1-1.3,0c-0.9-0.1-1.4,0.2-1.7,1.1C198,109.1,197,108.3,196,108.6z M199.9,105.1c1,0,2.1,0.1,3.1,0
		c0.4,0,0.8-0.4,1-0.7c0.5-0.6,0.3-1-0.5-1.1c-0.7-0.1-1.4,0-2.1,0C200.3,103.3,199.9,103.6,199.9,105.1z"/>
	<path class="st0" d="M148.4,106.1c0.4,1.6-0.2,3.1-2.6,2.3c0-0.1,0.1-0.3,0.1-0.4c0.4-1.1,0.3-1.2-0.8-1.2c-0.5,0-1,0.1-1.4,0
		c-1-0.1-1.5,0.2-1.9,1.2c-0.4,1.2-1.5,0.4-2.4,0.6c0.9-2.3,1.8-4.4,2.6-6.5c0.1-0.3,0.6-0.5,1-0.5c1.8-0.1,3.5-0.1,5.3,0
		c2,0,2.4,0.7,1.6,2.4C149.5,104.6,149,105.2,148.4,106.1z M143.2,105c3.4,0.2,4,0.3,4.5-1.6c-0.9,0-1.8-0.1-2.7-0.1
		C143.7,103.3,143.5,103.4,143.2,105z"/>
	<path class="st0" d="M296.1,108.6c0.9-2.3,1.7-4.4,2.6-6.5c0.1-0.2,0.5-0.5,0.8-0.5c2.3,0,4.7,0,7,0c0,1.4-0.3,1.7-1.5,1.7
		s-2.5,0-3.7,0c-0.4,0-0.7,0.4-1.1,0.6c0,0.2,0.1,0.3,0.1,0.5c1.6,0,3.2,0,5,0c-0.3,1.1-0.6,1.7-1.7,1.6c-1.1-0.1-2.2-0.1-3.3,0
		c-0.4,0-0.8,0.3-1.1,0.5c0,0.2,0.1,0.3,0.1,0.5c1.8,0,3.5,0,5.4,0c-0.2,1.2-0.7,1.8-1.9,1.7C300.5,108.5,298.4,108.6,296.1,108.6z"
		/>
	<path class="st0" d="M130.1,104.4c0,1.4-0.7,1.6-1.7,1.5c-1-0.1-2.1-0.1-3.1,0c-0.4,0-0.9,0.3-1.3,0.5c0,0.2,0.1,0.3,0.1,0.5
		c1.8,0,3.5,0,5.3,0c-0.1,1.6-0.2,1.8-1.6,1.8c-2.1,0-4.2,0-6.6,0c0.3-0.9,0.6-1.6,0.9-2.3c0.5-1.3,1.1-2.7,1.7-4
		c0.1-0.3,0.5-0.7,0.8-0.7c2.2-0.1,4.5,0,6.7,0c0.1,0,0.2,0.1,0.4,0.2c-0.2,0.5-0.3,0.9-0.5,1.5c-1.6,0-3.2,0-4.8,0
		c-0.8,0-0.8,0-1,1.1C127,104.4,128.6,104.4,130.1,104.4z"/>
	<path class="st0" d="M286.8,105.8c-0.3,1.4-0.9,2.5-2.1,2.6c-2.1,0.3-4.2,0.2-6.3,0.2c-0.9,0-1.2-0.7-1-1.4c0.6-1.6,1.2-3.1,2-4.5
		c0.4-0.6,1.4-1,2.2-1.1c1.7-0.2,3.4-0.1,5,0c0.5,0,1.2,0.6,1.2,0.9c0.1,0.5-0.3,1.4-0.7,1.5c-0.5,0.2-1.4,0.6-1.9-0.4
		c0-0.1-0.1-0.1-0.1-0.2c-0.7-0.7-4-0.2-4.4,0.7c-0.4,0.8-0.5,1.6-0.7,2.4c0.8,0.1,1.5,0.3,2.3,0.3c0.8,0.1,1.6-0.1,2.3-0.8
		C285,105.7,286,105.9,286.8,105.8z"/>
	<path class="st0" d="M102.5,108.7c1-2.4,1.8-4.5,2.7-6.6c0.1-0.3,0.6-0.5,0.9-0.6c1.8-0.1,3.5,0,5.3,0c1.3,0,1.8,0.7,1.5,2.1
		c-0.4,1.6-1.4,2.5-2.7,3.2c-0.3,0.2-0.8,0-1.2,0.1c-0.6,0-1.2,0-1.8,0c-1.1,0-2,0.2-2.4,1.5C104.7,108.6,103.5,108.5,102.5,108.7z
		 M106.3,105.3c1.2-0.1,2.3,0,3.3-0.3c0.4-0.1,0.6-0.8,1-1.3c-0.4-0.2-0.7-0.3-1.1-0.4c-0.3-0.1-0.7,0-1.1,0
		C106.8,103.3,106.7,103.4,106.3,105.3z"/>
	<path class="st0" d="M236.6,108.3c1.4-1.5,2.8-3,4.2-4.4c0.3-0.3,0.6-0.6,0.9-0.9c1.6-1.6,1.7-1.7,4.1-1.3c0.3,2.2,0.6,4.4,0.9,6.9
		c-1-0.3-2.1,0.7-2.6-0.8c0-0.1-0.2-0.3-0.3-0.2c-1.6,0.3-3.3-0.7-4.8,0.7c-0.5,0.4-1.5,0.3-2.3,0.4
		C236.7,108.5,236.7,108.4,236.6,108.3z M243.9,103.7c-0.1-0.1-0.2-0.1-0.3-0.2c-0.6,0.7-1.3,1.4-2,2.2c1,0,1.7,0,2.4,0
		C243.9,105,243.9,104.4,243.9,103.7z"/>
	<path class="st0" d="M168.9,101.5c-0.1,1.3-0.5,1.8-1.7,1.7c-1.1-0.1-2.3,0-3.4,0c-0.9-0.1-1.2,0.4-1.4,1.3c1.7,0,3.3,0,4.9,0
		c-0.2,1.6-0.5,1.8-1.9,1.8c-0.9,0-1.8,0-2.7,0c-0.8-0.1-1.3,0.1-1.6,0.9c-0.6,1.6-0.7,1.6-2.7,1.2c0.7-1.7,1.5-3.3,2-5
		c0.5-1.6,1.4-2,2.9-1.9C165.2,101.6,167,101.5,168.9,101.5z"/>
	<path class="st1" d="M185.2,13.8c-1.4,1.2-3,1.4-4.7,1.3c-1.2-0.1-2.3-0.3-3.5-0.4c-0.8-0.1-1.6,0.1-2.4,0.1
		c0.8-1.1,1.9-1.6,3.2-1.7c0.6-0.1,1.3,0.1,1.9,0.2C181.6,13.4,183.3,13.6,185.2,13.8z"/>
	<path class="st1" d="M214.9,22.6c-0.5,0.9-1.1,1.9-1.6,2.9c-0.8,1.7-2.8,3-4.6,2.9c0.8-1,1.8-2,2.5-3.2
		C212.1,23.7,213.3,22.9,214.9,22.6z"/>
	<path class="st0" d="M87.8,73.5c2.3,0.8,4.4,1.5,6.6,2.3c1,0.4,2.1,0.7,3.1,1.1c0.2,0.1,0.5,0.6,0.4,0.7c-1.3,3.3-2.7,6.5-4.1,9.9
		c-1.3-0.6-2.5-1.2-3.6-1.8c-0.1-0.1-0.3-0.3-0.3-0.4c-0.7-3.7-1.3-7.3-2-11C87.8,74.1,87.8,73.9,87.8,73.5z"/>
	<path class="st0" d="M92.6,53.7c0,1.2-1.1,2.2-2.2,2.2c-1,0-1.9-0.9-1.9-1.8c0-1.1,1.2-2.3,2.3-2.3C91.7,51.8,92.6,52.7,92.6,53.7z
		"/>
</g>
</svg>
