<?xml version="1.0" encoding="utf-8"?>
<!-- Generator: Adobe Illustrator 24.2.3, SVG Export Plug-In . SVG Version: 6.00 Build 0)  -->
<svg version="1.1" id="Layer_1" xmlns="http://www.w3.org/2000/svg" xmlns:xlink="http://www.w3.org/1999/xlink" x="0px" y="0px"
	 viewBox="0 0 322.21 121.53" style="enable-background:new 0 0 322.21 121.53;" xml:space="preserve">
<style type="text/css">
	.st0{fill:#E52520;}
</style>
<g>
	<path d="M8.13,75.19c0.37-0.69,0.48-1.54,0.61-2.34c0.17-1.02,0.31-2.06,0.34-3.09c0.02-0.51-0.34-1.05-0.3-1.56
		c0.09-1.19,0.34-2.37,0.48-3.55c0.27-2.16,0.3-4.38,0.8-6.48c0.79-3.32,1.74-6.61,2.9-9.82c1.41-3.88,3.55-7.39,6.12-10.63
		c0.41-0.52,0.57-1.25,0.83-1.89c0.69-1.75,1.86-3,3.51-3.97c1.57-0.93,3-2.13,4.41-3.29c3.91-3.2,7.85-6.36,12.4-8.6
		c1.64-0.81,3.43-1.39,5.22-1.82c2.76-0.66,5.57-1.16,8.38-1.62c3.53-0.58,7.07-1.16,10.62-1.53c8.37-0.87,16.77-1.3,25.19-1.14
		c3.51,0.07,7.02,0.26,10.52,0.41c0.64,0.03,1.1-0.06,1.58-0.65c0.36-0.44,1.19-0.72,1.8-0.71c5.7,0.09,11.4,0.28,17.1,0.37
		c0.96,0.01,1.33,0.31,1.3,1.23c-0.16,4.86-0.1,9.73-0.54,14.56c-0.39,4.27-1.29,8.5-2.07,12.73c-0.29,1.57-0.88,3.08-1.36,4.6
		c-0.07,0.23-0.27,0.5-0.47,0.58c-1.52,0.61-3.03,1.3-4.72,0.57c-0.33-0.14-0.69-0.26-1.04-0.29c-3.39-0.28-6.78-0.54-10.17-0.79
		c-0.26-0.02-0.64,0.01-0.79,0.18c-1.54,1.72-2.24,1.52-4.3,1.31c0.46,1.42,0.71,2.85,1.37,4.04c0.76,1.37,1.83,2.59,2.91,3.74
		c0.38,0.41,1.2,0.4,1.78,0.66c0.53,0.23,1.02,0.55,1.51,0.86c1.98,1.24,2.24,5.04,0.35,6.45c-1.86,1.39-3.81,2.65-5.79,3.87
		c-1.39,0.86-1.24,2.22-1.27,3.48c-0.03,1.17,0.58,2.08,1.75,2.52c1.15,0.44,2.3,0.89,3.54,1.37c-1.05,2.28-2.06,4.48-3.09,6.67
		c-1.26,2.66-2.53,5.31-3.84,7.94c-0.13,0.26-0.65,0.53-0.92,0.48c-2.36-0.45-4.72-0.94-7.05-1.49c-0.63-0.15-1.06-0.1-1.4,0.45
		c-0.02,0.03-0.05,0.06-0.08,0.08c-1.38,1.1-1.87,2.46-1.74,4.27c0.14,2.02,0.13,4.08-0.67,6.05c-0.67,1.67-1.62,2.53-3.39,2.54
		c-1.31,0-2.65-0.05-3.92-0.33c-3.68-0.8-7-0.19-10.27,1.75c-2.58,1.53-5.58,2.16-8.56,2.45c-4.61,0.45-9.25,0.68-13.87,1.05
		c-0.38,0.03-0.82,0.27-1.1,0.55c-1.2,1.19-2.48,2.24-4.1,2.82c-2.16,0.77-4.39,0.06-5.33-1.93c-0.46-0.96-0.73-2.1-0.74-3.16
		c-0.01-1.06-0.47-1.45-1.32-1.8c-4.58-1.88-8.64-4.54-12.17-8.02c-3.17-3.13-5.66-6.7-7.21-10.89c-0.33-0.89-0.82-1.43-1.76-1.86
		 M96.62,43.82c0.2-0.77,0.42-1.54,0.59-2.32c0.62-2.85,1.18-5.71,1.84-8.54c0.24-1-0.25-1.31-1.03-1.51
		c-2.67-0.7-5.32-1.59-8.03-2.06c-4.38-0.77-8.79-1.57-13.21-1.83c-8.61-0.49-17.12,0.31-25.37,3.13
		c-6.08,2.08-11.51,5.16-16.14,9.64c-0.46,0.44-1.02,0.77-1.56,1.18c-0.13,0.3-0.22,0.74-0.47,1.06c-2.69,3.39-5.01,6.97-6.31,11.14
		c-0.13,0.41-0.52,0.73-0.74,1.12c-0.12,0.19-0.18,0.43-0.21,0.66c-0.11,0.85-0.17,1.72-0.31,2.57c-0.11,0.67-0.32,1.33-0.48,1.99
		c0.46-0.42,0.67-0.94,0.95-1.42c0.65-1.08,1.37-2.13,2-3.22c0.78-1.33,1.42-2.75,2.26-4.04c0.62-0.96,1.48-1.76,2.22-2.64
		c0.84-1.02,1.63-2.09,2.52-3.06c0.31-0.34,0.92-0.37,1.32-0.66c0.56-0.4,1.09-0.87,1.57-1.38c0.29-0.31,0.37-0.86,0.7-1.11
		c4.36-3.44,9.25-5.67,14.76-6.58c5.22-0.86,10.28-0.31,15.18,1.54c4.61,1.74,8.6,4.5,11.96,8.12c0.79,0.85,1.57,1.72,2.36,2.59
		c-2.84-4.73-5.58-9.52-9.95-13.11C81.08,37.35,89.27,39.24,96.62,43.82z M15.53,62.66c0.23-0.51,0.57-0.89,0.51-1.18
		c-0.47-2.09,1.51-3.69,1.11-5.75c1.86-6.58,5.08-12.41,9.74-17.43c7.76-8.36,17.65-12.86,28.53-15.39c4.39-1.02,8.91-1.55,13.4-2.1
		c9.27-1.13,18.55-0.62,27.81,0.27c1.33,0.13,2.65,0.3,4.1,0.46c0.15-1.83,0.23-3.5,0.45-5.16c0.11-0.82-0.17-1.03-0.91-1.06
		c-1.86-0.08-3.72-0.24-5.59-0.3c-6.55-0.21-13.1-0.07-19.62,0.57c-3.96,0.39-7.94,0.76-11.85,1.49c-4.36,0.82-8.69,1.9-12.96,3.1
		c-6.73,1.89-13.01,4.78-18.71,8.87c-4.09,2.93-7.56,6.45-10.27,10.7c-3.57,5.6-5.31,11.77-5.72,18.37
		c-0.04,0.62-0.43,1.22-0.64,1.83c-0.06,0.16-0.13,0.36-0.09,0.5C14.99,61.1,15.21,61.73,15.53,62.66z M27.03,69.3
		c-0.05,0.19-0.1,0.28-0.11,0.39c-0.02,0.22-0.05,0.44-0.04,0.66c0.27,5.01,1.22,9.84,3.94,14.16c2.25,3.57,5.41,6.05,9.37,7.44
		c4.82,1.7,9.78,1.76,14.79,0.99c4.3-0.66,8.47-1.78,12.5-3.44c1.5-0.62,3.09-1.2,4.68-1.34c2.36-0.2,4.75,0.03,7.12,0.06
		c0.97,0.01,1.94,0,3.2,0c-0.36-0.14-0.48-0.19-0.59-0.23c-3.94-1.5-7.88-3.01-11.83-4.47c-0.35-0.13-0.89-0.04-1.23,0.15
		c-3.15,1.71-6.43,3.02-9.95,3.82c-4.57,1.04-9.12,1.14-13.69,0.21c-3.75-0.77-7.19-2.25-10.22-4.61
		C30.48,79.59,27.89,74.99,27.03,69.3z M82.81,70c-0.39-0.34-0.79-0.66-1.16-1.02c-0.42-0.39-0.8-0.59-1.33-0.14
		c-0.71,0.59-1.46,1.14-2.38,1.85c1.97,1.27,0.9,2.48-0.02,3.7c-0.13,0.17-0.22,0.37-0.36,0.54c-1.81,2.25-3.62,4.5-5.46,6.77
		c0.28,0.11,0.6,0.26,0.94,0.38c2.2,0.76,4.4,1.5,6.6,2.26c4.38,1.51,8.54,3.7,13.26,4.22c1.12,0.12,1.64-0.05,2.09-1.03
		c0.77-1.69,1.63-3.33,2.45-5c1.12-2.28,2.23-4.55,3.42-6.97c-5.75-1.8-11.38-3.57-17.14-5.37L82.81,70z M101.47,45.15
		c2.98,0.26,5.88,0.5,8.79,0.76c0.83,0.08,1.66,0.22,2.49,0.32c0.89,0.11,1.78,0.29,2.66,0.29c0.71,0,1.29-0.33,1.5-1.16
		c0.71-2.71,1.5-5.39,2.17-8.1c0.33-1.32,0.45-2.68,0.68-4.12c-5.52-0.28-10.82-0.55-16.01-0.81
		C102.99,36.69,102.24,40.87,101.47,45.15z M81.85,61.64c2.54-0.83,4.93-1.55,7.27-2.41c1.82-0.66,3.51-1.59,4.76-3.13
		c1.28-1.57,1.2-4.3-0.22-5.72c-0.79-0.79-1.82-1.45-2.94-1.11c-3.17,0.95-6.29,2.06-9.43,3.08c-0.61,0.2-0.77,0.53-0.67,1.14
		c0.24,1.59,0.42,3.18,0.65,4.77C81.41,59.29,81.62,60.32,81.85,61.64z M120.87,14.21c-1.01-0.05-1.92-0.11-2.83-0.14
		c-3.98-0.1-7.96-0.21-11.94-0.27c-0.36,0-1.02,0.35-1.04,0.59c-0.1,1.22-0.05,2.46-0.05,3.75c5.29,0.25,10.52,0.49,15.85,0.74
		C120.87,17.29,120.87,15.82,120.87,14.21z M71.71,66.98c0.59-3.87,1.21-7.63-0.45-11.53c-0.25,0.34-0.35,0.48-0.45,0.63
		c-1.37,1.95-2.7,3.93-4.14,5.83c-1,1.33-2.3,2.15-4.12,1.81c-0.82-0.15-1.68-0.01-2.52-0.08c-0.75-0.07-1.32,0.07-1.55,1.08
		C62.84,65.46,67.2,66.21,71.71,66.98z M52.83,67.19c-1.49,4.45-2.94,8.78-4.44,13.25c4.16,0.56,8.02,0.28,11.72-1.28
		c-1.89-1.31-3.7-2.5-5.43-3.79c-1.5-1.13-2.37-2.56-1.49-4.53c0.12-0.26,0.18-0.56,0.23-0.84c0.13-0.75,0.24-1.5,0.35-2.25
		C53.5,67.59,53.25,67.44,52.83,67.19z M38.4,72.76c2.36,3.04,4.72,5.81,8.55,7.05c-0.03-0.35-0.01-0.54-0.06-0.7
		c-0.86-2.65-1.04-5.37-0.6-8.11c0.09-0.58,0.44-1.23,0.87-1.63c0.99-0.9,2.08-1.69,3.18-2.46c0.66-0.46,0.79-0.94,0.36-1.67
		C46.62,67.74,42.58,70.21,38.4,72.76z M38.86,58.02c0.58-0.21,1.05-0.4,1.53-0.56c2.36-0.81,4.79-1.25,7.29-1.29
		c0.9-0.01,1.58,0.27,2.12,1.07c0.72,1.08,1.58,2.07,2.41,3.13c0.39-0.19,0.72-0.36,1.1-0.54c-2.13-3.71-4.22-7.35-6.31-11
		C44.18,50.47,38.99,55.81,38.86,58.02z M37.88,70.92c0.18-0.17,0.35-0.27,0.42-0.41c1.44-2.87,3.45-5.28,5.97-7.25
		c0.34-0.26,0.85-0.43,1.28-0.43c1.35,0.03,2.7,0.12,4.04,0.27c0.77,0.09,1.16-0.18,1.32-1c-1.09-0.23-2.15-0.46-3.21-0.67
		c-3.07-0.62-6.13-1.26-9.21-1.83c-0.22-0.04-0.69,0.28-0.76,0.51c-0.25,0.91-0.47,1.85-0.54,2.79
		C36.99,65.56,36.69,68.25,37.88,70.92z M58.63,61.76c4.13-2.48,8.22-4.93,12.4-7.44c-2.28-3.1-4.67-5.85-8.19-7.09
		c0.19,2.55,0.43,4.97,0.53,7.39c0.06,1.47-0.34,2.78-1.81,3.59c-0.91,0.5-1.67,1.27-2.53,1.86C58.42,60.49,58.22,60.95,58.63,61.76
		z M49.45,47.69c0,0.11,0,0.21,0,0.32c0.35,0.17,0.7,0.34,1.05,0.52c2.24,1.16,4.28,2.6,5.76,4.68c0.26,0.37,0.35,1,0.27,1.47
		c-0.26,1.5-0.64,2.98-0.99,4.53c0.34,0.18,0.67,0.35,1.06,0.56c1.53-4.43,3.03-8.76,4.55-13.17
		C57.03,46.04,53.15,46.12,49.45,47.69z M61.82,78.33c2.84-1.17,8.11-6.78,8.34-8.85c-0.28,0.07-0.57,0.11-0.83,0.21
		c-2.53,0.93-5.13,1.35-7.83,1.29c-1.01-0.02-1.7-0.26-2.2-1.2c-0.4-0.76-1.08-1.38-1.51-2.13c-0.45-0.78-0.98-0.95-1.88-0.52
		C57.89,70.86,59.86,74.6,61.82,78.33z M120.69,23.5c0.07-0.57,0.11-0.97,0.16-1.37c0.18-1.46,0.19-1.46-1.23-1.54
		c-4.34-0.23-8.68-0.47-13.02-0.69c-0.53-0.03-1.07,0-1.65,0c-0.03,0.4-0.06,0.73-0.07,1.05c-0.07,1.43-0.07,1.42,1.32,1.52
		c3.9,0.26,7.8,0.52,11.7,0.79C118.8,23.32,119.7,23.41,120.69,23.5z M75.04,99.82c1.39,0.24,2.48,0.49,3.59,0.61
		c1.25,0.13,2.52,0.04,3.49-0.88c1.14-1.09,1.45-5.03,0.54-6.45C80.19,95.27,77.73,97.44,75.04,99.82z M33.82,104.43
		c-0.07,2.11,1.18,4.2,2.65,4.61c1.33,0.38,4.32-1.01,5.12-2.41C39.03,105.9,36.47,105.18,33.82,104.43z M61.87,83.01
		c-0.01-0.8-0.67-1.49-1.44-1.51c-0.92-0.02-2.06,1.1-2.07,2.04c-0.01,0.83,0.72,1.51,1.56,1.47
		C60.95,84.97,61.88,84.01,61.87,83.01z M33.51,73.28c1-0.01,1.93-0.93,1.9-1.88c-0.02-0.88-0.74-1.53-1.66-1.51
		c-0.98,0.02-1.95,0.95-1.93,1.87C31.84,72.58,32.63,73.29,33.51,73.28z M43.94,81.42c-1.08,0-2.01,0.85-2.02,1.84
		c0,0.87,0.7,1.52,1.64,1.5c0.95-0.02,2.02-1.06,2-1.95C45.54,82.06,44.79,81.42,43.94,81.42z M76.02,54.4
		c-0.99,0-1.95,0.9-1.94,1.82c0.01,0.82,0.79,1.54,1.65,1.54c1.01,0,1.9-0.86,1.9-1.84C77.64,55,76.99,54.39,76.02,54.4z
		 M49.36,45.28c1.07,0.01,2.13-0.94,2.12-1.92c-0.01-0.76-0.75-1.45-1.57-1.45c-1.06,0-2.05,0.96-2,1.99
		C47.96,44.78,48.41,45.31,49.36,45.28z M67.48,43.17c-1.05-0.01-2.07,0.92-2.05,1.86c0.02,0.75,0.81,1.49,1.6,1.5
		c0.99,0.02,2.01-0.95,2.01-1.91C69.04,43.75,68.42,43.17,67.48,43.17z M36.62,52.44c-1,0.01-1.88,0.86-1.9,1.85
		c-0.02,0.91,0.64,1.57,1.56,1.56c1.02-0.01,1.95-0.97,1.91-1.97C38.16,53.04,37.49,52.44,36.62,52.44z M72.62,74.89
		c0.92-0.02,1.92-1.01,1.91-1.9c0-0.8-0.8-1.53-1.66-1.51c-0.97,0.02-1.86,0.91-1.87,1.89C71,74.29,71.66,74.91,72.62,74.89z
		 M10.59,81.39c-0.38-1.7-0.73-3.28-1.1-4.96C7.67,78.09,8.16,80.25,10.59,81.39z"/>
	<path class="st0" d="M220.44,16.36c5.59,1.15,10.92,3.04,15.88,5.89c1.78,1.02,3.48,2.17,5.1,3.46c-1.71-0.58-3.4-1.19-5.12-1.74
		c-3.79-1.22-7.66-2.05-11.63-2.53c-4.27-0.52-8.52-0.71-12.8-0.32c-6.03,0.54-11.9,1.71-17.38,4.41c-1.76,0.87-3.48,1.86-4.65,3.51
		c-1.13,1.6-0.72,2.95,1.11,3.64c2.65,1.01,5.37,1.05,8.08,0.32c1.86-0.5,3.66-1.19,5.63-1.85c-0.89,1.5-2.12,2.56-3.44,3.5
		c-3.63,2.59-7.75,3.91-12.1,4.68c-5.6,0.99-11.22,0.86-16.84,0.56c-2.52-0.13-5.02-0.52-7.53-0.65c-1.58-0.08-3.2-0.22-4.69,0.67
		c-2.18,1.31-2.73,3.61-1.25,5.66c1.37,1.89,3.39,2.83,5.49,3.59c1.32,0.48,2.7,0.81,4.03,1.45c-2.27-0.2-4.54-0.34-6.8-0.61
		c-5.99-0.72-11.57-2.8-17.07-5.19c-2.73-1.19-5.5-2.36-8.35-3.15c-4.81-1.34-9.3-0.25-13.41,2.52c-0.59,0.4-1.18,0.78-1.77,1.17
		c0.77-3.1,1.69-6.09,2.22-9.16c0.68-3.91,1.15-7.87,1.51-11.83c0.27-2.98,0.2-5.99,0.36-8.98c0.02-0.36,0.5-0.88,0.88-1
		c5.77-1.89,11.67-3.15,17.72-3.74c5.61-0.56,11.19-0.44,16.73,0.45c3.18,0.51,6.29,1.43,9.43,2.17c-0.01,0.12-0.03,0.24-0.04,0.36
		c-0.37,0-0.74,0.01-1.11,0c-4.25-0.11-8.49,0.02-12.66,0.94c-1.99,0.44-3.94,1.03-5.6,2.31c-0.09,0.07-0.22,0.1-0.27,0.19
		c-0.45,0.75-1.29,1.53-1.25,2.26c0.05,1.06,1.23,1.37,2.21,1.59c4.83,1.1,9.67,0.64,14.51,0.09c2.94-0.33,5.89-0.64,8.81-1.11
		c4.18-0.67,8.33-1.55,12.51-2.2c4.29-0.67,8.6-1.37,12.93-1.68c4.92-0.35,9.86-0.28,14.79-0.39
		C217.21,15.69,220.44,16.36,220.44,16.36z M153.65,41.26c0.04-0.12,0.08-0.23,0.13-0.35c-0.84-0.32-1.65-0.78-2.51-0.94
		c-2.32-0.41-4.8-0.09-6.95-1.69c1.28,4.32,6.68,7.71,11.96,8.47c-0.42-0.34-0.73-0.57-1.02-0.83c-0.99-0.9-2.01-1.77-2.92-2.74
		c-0.33-0.35-0.37-0.96-0.55-1.45c0.49-0.13,0.99-0.27,1.48-0.39C153.39,41.3,153.52,41.28,153.65,41.26z M136.25,16.51
		c1.83-0.57,3.53-0.07,5.27,0.34c1.59,0.38,3.24,0.79,4.96-0.19c-0.4-0.11-0.7-0.16-0.98-0.28c-0.32-0.14-0.61-0.34-0.91-0.51
		c0.2-0.33,0.31-0.77,0.6-0.95c0.82-0.51,1.68-0.97,2.57-1.35c0.99-0.43,2.03-0.74,3.05-1.11
		C145.38,11.85,140.36,12.57,136.25,16.51z M196.28,35.2c-1.37-0.07-2.66-0.13-3.95-0.22c-1.42-0.1-2.83-0.3-4.25-0.31
		c-1.2,0-2.07,0.72-2.73,1.57c1.46,0.12,2.87,0.23,4.27,0.34C191.96,36.77,194.35,37.09,196.28,35.2z"/>
	<path d="M245.22,66.93c0.74-0.62,1.27-1.25,1.95-1.61c0.84-0.45,1.8-0.92,2.72-0.94c4.61-0.09,9.22-0.07,13.83-0.02
		c1.69,0.02,3.39,0.34,4.59,1.65c1.47,1.6,1.39,3.6,0.8,5.48c-0.83,2.63-1.83,5.21-2.88,7.76c-1.19,2.89-2.34,5.81-3.8,8.55
		c-2.58,4.84-6.72,7.29-12.27,7.27c-4.24-0.02-8.49,0-12.73,0c-1.93,0-2.48-0.52-2.71-2.5c-0.01-0.13-0.04-0.26-0.1-0.59
		c-0.68,0.92-1.22,1.72-1.84,2.46c-0.23,0.28-0.62,0.59-0.94,0.59c-4.75,0.03-9.51,0.02-14.26,0.01c-0.1,0-0.2-0.07-0.32-0.12
		c0.83-1.28,1.8-2.46,2.42-3.8c1.36-2.93,2.57-5.93,3.8-8.92c1.46-3.52,2.89-7.06,4.32-10.59c2-4.95,4.04-9.88,5.95-14.87
		c0.4-1.05,0.33-2.28,0.48-3.53c5.41,0,10.91,0,16.59,0C248.96,57.77,247.12,62.28,245.22,66.93z M241.34,89.01
		C241.34,89.01,241.34,89.01,241.34,89.01c1.02,0,2.05,0.03,3.07,0c1.35-0.04,2.37-0.62,2.88-1.94c0.28-0.71,0.62-1.39,0.91-2.1
		c1.71-4.17,3.43-8.33,5.11-12.51c0.57-1.43,0.12-2.09-1.41-2.12c-1.94-0.04-3.88-0.03-5.82,0c-1.38,0.02-2.46,0.61-3.02,1.93
		c-0.72,1.71-1.44,3.41-2.14,5.13c-1.32,3.23-2.66,6.45-3.95,9.69c-0.51,1.27-0.1,1.85,1.3,1.91
		C239.29,89.05,240.32,89.01,241.34,89.01z"/>
	<path d="M288.34,94.96c-4.24,0-8.48,0.02-12.72-0.01c-2-0.02-4.02,0.02-6-0.25c-3.36-0.47-3.75-2.8-3.11-5.23
		c0.64-2.45,1.59-4.83,2.54-7.19c1.45-3.61,2.92-7.21,4.55-10.73c1.24-2.67,2.97-5.08,5.87-6.17c1.48-0.56,3.1-0.95,4.67-0.99
		c4.5-0.13,9-0.08,13.5-0.03c0.82,0.01,1.62,0.11,2.45,0.01c0.56-0.06,1.15,0.27,1.74,0.34c0.54,0.07,1.15,0.19,1.62,0
		c1.47-0.59,2.85-0.44,4.34,0c0.86,0.25,1.95,0.28,2.78-0.03c1.47-0.55,2.66,0.01,3.85,0.56c1.23,0.57,1.7,1.77,1.53,3.02
		c-0.22,1.61-0.51,3.25-1.1,4.76c-1.82,4.67-3.76,9.3-5.72,13.91c-1.15,2.71-2.75,5.14-5.36,6.67c-2.01,1.18-4.27,1.43-6.55,1.45
		c-2.96,0.03-5.93,0.01-8.89,0.01C288.34,95.02,288.34,94.99,288.34,94.96z M287.21,89.01c0,0,0-0.01,0-0.01
		c1.13,0,2.27,0.03,3.4-0.01c1.3-0.05,2.3-0.58,2.81-1.87c0.48-1.21,1.07-2.39,1.53-3.61c1.5-4.01,3.55-7.8,4.83-11.91
		c0.25-0.81,0.03-1.22-0.78-1.23c-2.44-0.04-4.88-0.07-7.32-0.03c-1.22,0.02-2.44,0.46-2.96,1.56c-0.97,2.03-1.67,4.17-2.5,6.26
		c-1.18,2.97-2.4,5.93-3.54,8.91c-0.53,1.4-0.16,1.88,1.35,1.93C285.09,89.04,286.15,89.01,287.21,89.01z"/>
	<path d="M148.16,64.38c5.44,0,11.05,0,16.84,0c-0.56,1.41-1.09,2.75-1.63,4.08c-2.51,6.12-5.03,12.23-7.53,18.35
		c-0.58,1.41-0.18,2.12,1.32,2.16c2.08,0.06,4.17,0.01,6.25,0.02c1.9,0,2.75-1.27,3.37-2.79c2.14-5.25,4.24-10.51,6.41-15.74
		c0.8-1.93,1.1-3.91,0.86-6.05c5.76,0,11.43,0,17.25,0c-0.56,1.38-1.09,2.68-1.62,3.98c-2.58,6.32-5.12,12.66-7.75,18.97
		c-1.02,2.44-1.99,4.85-1.52,7.6c-5.45,0-10.72,0-16.07,0c0.25-0.98,0.47-1.85,0.75-2.92c-0.87,0.75-1.52,1.51-2.34,1.94
		c-0.97,0.51-2.08,1-3.14,1.03c-4.24,0.12-8.49,0.1-12.73,0.02c-1.26-0.02-2.56-0.22-3.75-0.64c-2.64-0.92-3.43-3.46-2.77-6.14
		c0.75-3.01,1.93-5.93,3.03-8.84c1.33-3.5,2.87-6.92,4.12-10.44C148,67.57,147.95,65.98,148.16,64.38z"/>
	<path d="M107.43,94.89c0.74-1.1,1.57-2.07,2.1-3.19c1.37-2.89,2.64-5.82,3.88-8.77c1.49-3.55,2.91-7.13,4.36-10.69
		c1.63-4,3.27-7.99,5-12.21c-4.66,0.27-9.31-0.82-13.89,1.79c0.79-1.47,1.4-2.66,2.06-3.83c0.76-1.36,1.6-2.69,2.31-4.08
		c0.34-0.66,0.77-0.81,1.46-0.81c5.71,0.02,11.42,0.01,17.12,0.01c6.81,0,13.61,0,20.42,0c0.43,0,0.87,0,1.41,0
		c-0.75,2.91-1.46,5.7-2.23,8.68c-1.96-1.84-4.28-1.75-6.57-1.75c-1.76,0-3.51-0.04-5.27,0.04c-0.38,0.02-0.93,0.39-1.07,0.74
		c-2.18,5.15-4.32,10.32-6.43,15.5c-1.92,4.71-3.83,9.42-5.65,14.17c-0.45,1.17-0.47,2.49-0.76,3.73c-0.08,0.31-0.46,0.79-0.7,0.79
		c-5.71,0.04-11.42,0.03-17.12,0.02C107.73,95.04,107.6,94.95,107.43,94.89z"/>
	<path d="M199.04,92.69c0.49,0.71,0.98,1.42,1.51,2.18c-0.96-0.07-1.81-0.13-2.91-0.2c0.44-0.32,0.76-0.55,1.15-0.83
		c-0.81-0.56-1.16-0.01-1.59,0.5c-0.24,0.29-0.61,0.67-0.92,0.68c-4.06,0.04-8.12,0.03-12.18,0.02c-0.14,0-0.27-0.06-0.56-0.13
		c0.41-0.47,0.73-0.88,1.08-1.25c1.93-2.07,2.88-4.68,3.94-7.23c1.68-4.06,3.37-8.12,4.98-12.21c0.88-2.22,1.69-4.48,2.37-6.77
		c0.27-0.91,0.12-1.94,0.17-3.03c4.99,0,10.07,0,15.26,0c-0.43,1.48-0.85,2.94-1.32,4.57c1.12-1.02,2.08-1.92,3.08-2.77
		c1.42-1.2,3.15-1.75,4.93-1.83c3.1-0.13,6.21-0.04,9.57-0.04c-1.37,3.36-2.7,6.62-4.05,9.94c-0.86-0.39-1.57-0.9-2.35-1.04
		c-3.38-0.64-6.8-0.63-10.08,0.41c-1.78,0.56-2.72,2.23-3.42,3.9c-1.64,3.91-3.24,7.84-4.88,11.84c-0.3-0.14-0.6-0.28-1.21-0.57
		c0.27,0.62,0.42,0.95,0.56,1.29c-1.33,1.16-1.33,1.16-0.38,2.76c0.07,0.13,0.19,0.26,0.2,0.39c0.01,0.56-0.02,1.12-0.04,1.68
		c-0.39-0.31-0.81-0.58-1.15-0.94c-0.48-0.51-0.89-1.09-1.33-1.64C199.33,92.48,199.18,92.58,199.04,92.69z"/>
	<path class="st0" d="M170.14,44.07c2.24,1.32,4.58,1.01,6.93,0.75c2.83-0.31,5.65-0.72,8.48-0.86c3.34-0.17,6.28,0.97,8.69,3.34
		c0.1,0.1,0.16,0.22,0.33,0.45c-0.22,0.03-0.35,0.09-0.45,0.06c-3.21-1.04-6.4-0.63-9.64-0.08c-2.22,0.38-4.48,0.65-6.73,0.74
		c-3.24,0.13-5.75-1.33-7.55-4C170.15,44.4,170.17,44.27,170.14,44.07z"/>
	<path d="M225.82,104.09c-1.22,1.29-2.39,2.62-3.69,3.83c-0.41,0.38-1.14,0.54-1.73,0.55c-0.19,0-0.46-0.78-0.57-1.24
		c-0.23-1-0.38-2.03-0.8-3.03c-0.44,1.01-0.88,2.02-1.31,3.03c-0.64,1.47-0.74,1.53-2.57,1.16c0.71-1.76,1.4-3.51,2.12-5.24
		c0.23-0.55,0.47-1.39,0.89-1.52c0.8-0.25,1.74-0.12,2.61-0.05c0.19,0.02,0.43,0.44,0.49,0.71c0.23,1.13,0.4,2.28,0.59,3.42
		c1.09-1.05,2.2-1.93,3.08-3c1.24-1.51,2.75-1.27,4.41-1.08c-0.88,2.2-1.64,4.36-2.65,6.4c-0.22,0.45-1.32,0.46-2.01,0.67
		c-0.06-0.11-0.12-0.22-0.19-0.33c0.55-1.36,1.09-2.72,1.64-4.08C226.03,104.24,225.93,104.16,225.82,104.09z"/>
	<path d="M186.85,103.84c0.68,0.57,0.1,1.23-0.18,1.92c-0.91,2.3-1.78,2.93-4.24,2.96c-1.35,0.02-2.7,0.05-4.05-0.03
		c-1.63-0.1-2.11-0.9-1.51-2.42c0.36-0.91,0.78-1.8,1.17-2.69c0.56-1.29,1.56-2.01,2.94-2.07c1.71-0.07,3.43-0.08,5.14,0
		c0.5,0.02,1.22,0.34,1.41,0.73C187.67,102.55,187.15,103.17,186.85,103.84z M181.45,106.91c2.4,0,2.84-0.3,3.53-2.39
		c0.26-0.78,0-1.23-0.8-1.27c-0.87-0.05-1.78-0.16-2.6,0.05c-0.6,0.15-1.3,0.67-1.59,1.21
		C178.81,106.69,178.97,106.91,181.45,106.91z"/>
	<path d="M260.91,103.58c-0.74,1.76-1.37,3.25-2.01,4.76c-0.65,0.04-1.29,0.08-1.99,0.12c-0.02-0.14-0.1-0.3-0.06-0.4
		c0.77-1.97,1.53-3.94,2.38-5.88c0.13-0.3,0.63-0.6,0.98-0.63c2.59-0.19,2.65-0.11,3.5,2.38c0.29,0.85,0.68,1.65,1.11,2.68
		c0.57-1.41,1.06-2.6,1.52-3.8c0.52-1.36,0.71-1.46,2.68-1.16c-0.56,1.39-1.1,2.75-1.65,4.11c-0.11,0.27-0.26,0.53-0.36,0.8
		c-0.73,1.99-0.73,1.91-2.77,2.02c-1.07,0.06-1.5-0.4-1.83-1.27C261.99,106.15,261.5,105.03,260.91,103.58z"/>
	<path d="M196,108.59c0.94-2.37,1.74-4.47,2.62-6.53c0.11-0.27,0.62-0.5,0.95-0.51c1.79-0.05,3.58-0.05,5.37-0.01
		c1.83,0.05,2.2,0.64,1.54,2.34c-0.03,0.07-0.04,0.15-0.08,0.2c-0.8,1.1-1.35,2.25-1.51,3.65c-0.11,0.92-0.54,0.96-2.36,0.72
		c-0.02-0.06-0.08-0.14-0.06-0.19c0.5-1.41,0.47-1.45-1.01-1.46c-0.44,0-0.88,0.05-1.31-0.01c-0.91-0.12-1.39,0.22-1.69,1.11
		C198.02,109.14,196.98,108.32,196,108.59z M199.87,105.08c1.04,0,2.09,0.06,3.12-0.03c0.36-0.03,0.77-0.38,1.02-0.69
		c0.47-0.58,0.29-1.02-0.48-1.07c-0.69-0.05-1.38-0.01-2.07-0.01C200.26,103.27,199.92,103.64,199.87,105.08z"/>
	<path d="M148.44,106.06c0.35,1.58-0.19,3.07-2.64,2.33c0.03-0.13,0.05-0.28,0.1-0.41c0.4-1.06,0.34-1.16-0.82-1.19
		c-0.47-0.01-0.96,0.05-1.42-0.01c-0.98-0.13-1.51,0.2-1.88,1.18c-0.43,1.16-1.46,0.37-2.4,0.62c0.93-2.33,1.75-4.45,2.65-6.54
		c0.11-0.26,0.62-0.48,0.96-0.49c1.75-0.05,3.5-0.05,5.25-0.01c1.96,0.04,2.35,0.65,1.55,2.44
		C149.48,104.64,148.99,105.22,148.44,106.06z M143.19,105c3.45,0.16,4.03,0.35,4.52-1.63c-0.92-0.03-1.8-0.09-2.67-0.1
		C143.67,103.26,143.47,103.44,143.19,105z"/>
	<path d="M296.09,108.55c0.92-2.32,1.73-4.42,2.59-6.49c0.1-0.24,0.49-0.5,0.75-0.5c2.34-0.04,4.67-0.02,7.01-0.02
		c0.01,1.42-0.26,1.71-1.5,1.71c-1.24,0-2.49-0.04-3.73,0.03c-0.38,0.02-0.74,0.36-1.11,0.55c0.04,0.16,0.09,0.31,0.13,0.47
		c1.61,0,3.21,0,4.95,0c-0.27,1.1-0.59,1.7-1.71,1.58c-1.09-0.11-2.2-0.07-3.29,0c-0.39,0.03-0.77,0.35-1.15,0.53
		c0.05,0.15,0.09,0.3,0.14,0.46c1.76,0,3.52,0,5.35,0c-0.22,1.23-0.66,1.8-1.91,1.73C300.49,108.46,298.37,108.55,296.09,108.55z"/>
	<path d="M130.1,104.37c0.01,1.38-0.7,1.55-1.67,1.48c-1.02-0.07-2.05-0.06-3.07,0.01c-0.45,0.03-0.88,0.3-1.32,0.46
		c0.03,0.15,0.05,0.31,0.08,0.46c1.76,0,3.52,0,5.28,0c-0.09,1.64-0.21,1.76-1.63,1.77c-2.12,0-4.23,0-6.56,0
		c0.32-0.87,0.57-1.6,0.86-2.32c0.54-1.35,1.08-2.7,1.69-4.02c0.14-0.29,0.54-0.65,0.83-0.66c2.23-0.05,4.46-0.02,6.7-0.01
		c0.09,0,0.19,0.09,0.35,0.17c-0.16,0.48-0.32,0.94-0.53,1.53c-1.58,0-3.19-0.01-4.79,0c-0.83,0.01-0.83,0.03-0.98,1.13
		C126.96,104.37,128.56,104.37,130.1,104.37z"/>
	<path d="M286.82,105.77c-0.32,1.36-0.94,2.48-2.08,2.62c-2.08,0.25-4.21,0.16-6.31,0.15c-0.85-0.01-1.22-0.69-0.97-1.37
		c0.56-1.55,1.16-3.12,2.01-4.52c0.36-0.59,1.39-0.98,2.16-1.05c1.67-0.17,3.36-0.14,5.04-0.04c0.46,0.03,1.19,0.55,1.24,0.92
		c0.07,0.5-0.29,1.38-0.68,1.53c-0.52,0.2-1.42,0.55-1.87-0.37c-0.03-0.06-0.08-0.13-0.13-0.18c-0.72-0.68-3.99-0.24-4.41,0.66
		c-0.35,0.76-0.49,1.61-0.73,2.42c0.77,0.12,1.53,0.3,2.3,0.35c0.84,0.05,1.56-0.12,2.25-0.82
		C285.03,105.68,285.99,105.86,286.82,105.77z"/>
	<path d="M102.5,108.66c0.99-2.43,1.82-4.51,2.72-6.57c0.12-0.27,0.6-0.54,0.92-0.55c1.75-0.05,3.51-0.02,5.26-0.02
		c1.26,0,1.84,0.73,1.49,2.06c-0.43,1.59-1.4,2.48-2.71,3.15c-0.32,0.16-0.78,0.04-1.17,0.05c-0.6,0.01-1.21,0.03-1.81,0.01
		c-1.14-0.04-2,0.18-2.41,1.48C104.69,108.57,103.49,108.52,102.5,108.66z M106.28,105.26c1.18-0.07,2.27-0.02,3.3-0.26
		c0.4-0.09,0.64-0.84,0.96-1.29c-0.37-0.15-0.74-0.34-1.12-0.42c-0.35-0.07-0.72-0.02-1.09-0.01
		C106.83,103.27,106.71,103.38,106.28,105.26z"/>
	<path d="M236.64,108.3c1.4-1.48,2.8-2.96,4.2-4.44c0.3-0.31,0.62-0.61,0.92-0.92c1.57-1.61,1.69-1.66,4.12-1.3
		c0.28,2.21,0.57,4.44,0.89,6.91c-0.98-0.27-2.09,0.73-2.6-0.82c-0.04-0.11-0.23-0.25-0.33-0.24c-1.58,0.25-3.3-0.7-4.79,0.73
		c-0.47,0.45-1.52,0.28-2.3,0.4C236.71,108.51,236.68,108.4,236.64,108.3z M243.87,103.71c-0.11-0.06-0.21-0.13-0.32-0.19
		c-0.63,0.69-1.26,1.38-2,2.2c0.98,0,1.66,0,2.44,0C243.95,104.99,243.91,104.35,243.87,103.71z"/>
	<path d="M168.87,101.52c-0.08,1.26-0.49,1.84-1.7,1.74c-1.12-0.1-2.26,0.03-3.39-0.04c-0.91-0.06-1.24,0.37-1.35,1.25
		c1.67,0,3.3,0,4.95,0c-0.24,1.55-0.49,1.77-1.9,1.77c-0.91,0-1.83,0.04-2.74-0.01c-0.78-0.05-1.27,0.13-1.59,0.94
		c-0.63,1.57-0.73,1.57-2.66,1.22c0.69-1.69,1.49-3.31,2-5.03c0.48-1.62,1.39-2,2.95-1.88
		C165.22,101.63,167.01,101.52,168.87,101.52z"/>
	<path class="st0" d="M185.24,13.8c-1.4,1.21-3.03,1.39-4.73,1.25c-1.16-0.1-2.31-0.32-3.47-0.4c-0.78-0.05-1.57,0.06-2.45,0.11
		c0.77-1.12,1.91-1.61,3.21-1.73c0.64-0.06,1.3,0.09,1.95,0.16C181.55,13.38,183.34,13.59,185.24,13.8z"/>
	<path class="st0" d="M214.89,22.62c-0.52,0.92-1.12,1.85-1.6,2.85c-0.83,1.73-2.8,2.96-4.6,2.91c0.79-0.99,1.77-2.02,2.51-3.2
		C212.11,23.72,213.33,22.89,214.89,22.62z"/>
	<path d="M87.78,73.5c2.26,0.78,4.41,1.53,6.57,2.27c1.03,0.36,2.07,0.68,3.08,1.09c0.21,0.09,0.47,0.56,0.4,0.73
		c-1.32,3.26-2.68,6.51-4.1,9.93c-1.28-0.63-2.47-1.2-3.64-1.8c-0.14-0.07-0.26-0.27-0.29-0.43c-0.68-3.66-1.35-7.31-2.01-10.97
		C87.75,74.1,87.78,73.85,87.78,73.5z"/>
	<path d="M92.56,53.72c-0.02,1.19-1.06,2.24-2.21,2.23c-1.02-0.01-1.9-0.88-1.87-1.85c0.03-1.07,1.21-2.25,2.26-2.26
		C91.74,51.83,92.58,52.69,92.56,53.72z"/>
</g>
</svg>
